<?xml version="1.0" encoding="UTF-8" standalone="no"?>
<svg width="241px" height="54px" viewBox="0 0 241 54" version="1.1" xmlns="http://www.w3.org/2000/svg" xmlns:xlink="http://www.w3.org/1999/xlink" xmlns:sketch="http://www.bohemiancoding.com/sketch/ns">
    <!-- Generator: Sketch 3.4.4 (17249) - http://www.bohemiancoding.com/sketch -->
    <title>logo</title>
    <desc>Created with Sketch.</desc>
    <defs></defs>
    <g id="12-09-16_1_6" stroke="none" stroke-width="1" fill="none" fill-rule="evenodd" sketch:type="MSPage">
        <g id="Menu_v1_12" sketch:type="MSArtboardGroup" transform="translate(-382.000000, -13.000000)" fill="#fff">
            <g id="menu_990" sketch:type="MSLayerGroup">
                <g id="logo" transform="translate(382.000000, 14.000000)" sketch:type="MSShapeGroup">
                    <g id="Group">
                        <g>
                            <g transform="translate(57.719298, 6.196624)">
                                <rect id="Rectangle-path" x="39.8881579" y="7.64250248" width="3.91666667" height="15.8013903"></rect>
                                <path d="M41.8464912,0 C41.125,0 40.6096491,0.206554121 40.1973684,0.722939424 C39.7850877,1.13604767 39.5789474,1.75571003 39.5789474,2.37537239 C39.5789474,2.99503476 39.7850877,3.51142006 40.1973684,4.02780536 C40.6096491,4.4409136 41.2280702,4.75074479 41.8464912,4.75074479 C42.5679825,4.75074479 43.0833333,4.54419067 43.495614,4.02780536 C43.9078947,3.61469712 44.1140351,2.99503476 44.1140351,2.37537239 C44.1140351,1.75571003 43.9078947,1.13604767 43.495614,0.722939424 C43.0833333,0.309831182 42.5679825,0 41.8464912,0 L41.8464912,0 Z" id="Shape"></path>
                                <path d="M52.9780702,20.8619662 L52.9780702,16.4210526 L58.5438596,16.4210526 L58.5438596,14.1489573 L52.9780702,14.1489573 L52.9780702,9.81132075 C52.9780702,9.60476663 52.9780702,9.50148957 53.2872807,9.50148957 L59.6776316,9.50148957 L59.6776316,7.53922542 L52.1535088,7.53922542 C50.9166667,7.53922542 49.9890351,7.8490566 49.5767544,8.57199603 C49.1644737,9.19165839 48.9583333,10.0178749 48.9583333,11.0506455 L48.9583333,20.3455809 C48.9583333,21.3783515 49.1644737,22.204568 49.6798246,22.6176763 C50.1951754,23.1340616 50.9166667,23.3406157 51.7412281,23.3406157 L59.5745614,23.3406157 L59.5745614,21.3783515 L53.5964912,21.3783515 C53.0811404,21.5849057 52.9780702,21.2750745 52.9780702,20.8619662 L52.9780702,20.8619662 Z" id="Shape"></path>
                                <path d="M74.8289474,16.7308838 L74.7258772,16.6276068 C74.4166667,16.1112214 73.6951754,15.0784508 72.6644737,13.5292949 C71.6337719,11.980139 70.6030702,10.5342602 69.7785088,9.39821251 C69.4692982,8.88182721 69.0570175,8.57199603 68.6447368,8.26216485 C68.2324561,7.95233366 67.7171053,7.8490566 67.0986842,7.8490566 C66.2741228,7.8490566 65.6557018,8.05561072 65.1403509,8.46871897 C64.625,8.88182721 64.3157895,9.60476663 64.3157895,10.4309831 L64.3157895,23.6504469 L66.5833333,23.6504469 L66.5833333,11.3604767 L66.5833333,11.3604767 C66.7894737,11.6703078 67.3048246,12.4965243 68.2324561,13.8391261 C69.0570175,15.1817279 70.5,17.2472691 72.3552632,20.2423039 L73.5921053,22.101291 C73.7982456,22.4111221 74.004386,22.7209533 74.1074561,22.9275074 C74.3135965,23.2373386 74.5197368,23.4438928 74.8289474,23.6504469 C75.1381579,23.857001 75.4473684,23.9602781 75.7565789,23.9602781 C76.375,23.9602781 76.7872807,23.7537239 76.9934211,23.4438928 C77.0964912,23.1340616 77.1995614,22.7209533 77.1995614,22.101291 L77.1995614,7.8490566 L74.9320175,7.8490566 L74.8289474,16.7308838 L74.8289474,16.7308838 Z" id="Shape"></path>
                                <path d="M166.561404,7.64250248 L166.561404,9.91459782 L169.653509,9.91459782 L169.653509,23.4438928 L173.570175,23.4438928 L173.570175,9.91459782 L176.662281,9.91459782 L176.662281,7.64250248 L166.561404,7.64250248 Z" id="Shape"></path>
                                <path d="M104.100877,20.8619662 L104.100877,16.4210526 L109.666667,16.4210526 L109.666667,14.1489573 L104.100877,14.1489573 L104.100877,9.81132075 C104.100877,9.60476663 104.100877,9.50148957 104.410088,9.50148957 L110.800439,9.50148957 L110.800439,7.53922542 L103.276316,7.53922542 C102.039474,7.53922542 101.111842,7.8490566 100.699561,8.57199603 C100.287281,9.19165839 100.08114,10.0178749 100.08114,11.0506455 L100.08114,20.3455809 C100.08114,21.3783515 100.287281,22.204568 100.802632,22.6176763 C101.317982,23.1340616 101.936404,23.3406157 102.864035,23.3406157 L110.697368,23.3406157 L110.697368,21.3783515 L104.719298,21.3783515 C104.203947,21.5849057 104.100877,21.2750745 104.100877,20.8619662 L104.100877,20.8619662 Z" id="Shape"></path>
                                <path d="M91.1140351,21.8947368 L90.495614,21.8947368 C88.9495614,21.8947368 87.9188596,21.2750745 87.3004386,20.0357498 C86.6820175,18.693148 86.372807,17.1439921 86.372807,15.285005 C86.372807,14.2522344 86.4758772,13.2194638 86.7850877,12.2899702 C87.0942982,11.3604767 87.5065789,10.6375372 88.125,10.0178749 C88.7434211,9.50148957 89.4649123,9.19165839 90.2894737,9.19165839 C91.8355263,9.19165839 93.3815789,10.3277061 94.3092105,12.0834161 L96.1644737,11.1539225 C95.3399123,9.81132075 94.6184211,8.88182721 93.3815789,8.15888779 C92.4539474,7.53922542 91.2171053,7.22939424 89.877193,7.22939424 C88.3311404,7.22939424 86.8881579,7.64250248 85.754386,8.36544191 C84.5175439,9.08838133 83.5899123,10.1211519 82.9714912,11.3604767 C82.3530702,12.5998014 81.9407895,13.9424032 81.9407895,15.388282 L81.9407895,15.4915591 L81.9407895,15.4915591 L81.9407895,15.4915591 L81.9407895,16.0079444 L81.9407895,16.2144985 C82.0438596,17.4538232 82.3530702,18.4865938 82.8684211,19.5193644 C82.9714912,19.6226415 83.0745614,19.8291956 83.0745614,19.9324727 C83.0745614,20.0357498 83.1776316,20.0357498 83.1776316,20.1390268 C83.2807018,20.3455809 83.3837719,20.448858 83.4868421,20.6554121 C83.5899123,20.8619662 83.6929825,20.9652433 83.7960526,21.0685204 C83.8991228,21.1717974 83.8991228,21.1717974 84.002193,21.2750745 L84.002193,21.2750745 C84.2083333,21.4816286 84.4144737,21.6881827 84.620614,21.8947368 C84.7236842,21.9980139 84.8267544,22.101291 85.0328947,22.204568 C85.1359649,22.3078451 85.2390351,22.3078451 85.2390351,22.4111221 C85.3421053,22.5143992 85.4451754,22.6176763 85.5482456,22.6176763 C86.7850877,23.3406157 88.125,23.7537239 89.6710526,23.7537239 C91.1140351,23.7537239 92.247807,23.4438928 93.1754386,22.8242304 C94.4122807,22.101291 95.0307018,21.1717974 95.9583333,19.8291956 L94.1030702,18.8997021 C93.5877193,20.5521351 92.3508772,21.5849057 91.1140351,21.8947368 L91.1140351,21.8947368 Z" id="Shape"></path>
                                <path d="M29.8903509,21.8947368 L29.2719298,21.8947368 C27.7258772,21.8947368 26.6951754,21.2750745 26.0767544,20.0357498 C25.4583333,18.693148 25.1491228,17.1439921 25.1491228,15.285005 C25.1491228,14.2522344 25.252193,13.2194638 25.5614035,12.2899702 C25.870614,11.3604767 26.2828947,10.6375372 26.9013158,10.0178749 C27.5197368,9.50148957 28.2412281,9.19165839 29.0657895,9.19165839 C30.6118421,9.19165839 32.1578947,10.3277061 33.0855263,12.0834161 L34.9407895,11.1539225 C34.1162281,9.81132075 33.3947368,8.88182721 32.1578947,8.15888779 C31.2302632,7.53922542 29.9934211,7.22939424 28.6535088,7.22939424 C27.1074561,7.22939424 25.6644737,7.64250248 24.5307018,8.36544191 C23.2938596,9.08838133 22.3662281,10.1211519 21.747807,11.3604767 C21.129386,12.5998014 20.7171053,13.9424032 20.7171053,15.388282 L20.7171053,15.4915591 L20.7171053,15.4915591 L20.7171053,15.4915591 L20.7171053,16.0079444 L20.7171053,16.2144985 C20.8201754,17.4538232 21.129386,18.4865938 21.6447368,19.5193644 C21.747807,19.6226415 21.8508772,19.8291956 21.8508772,19.9324727 C21.8508772,20.0357498 21.9539474,20.0357498 21.9539474,20.1390268 C22.0570175,20.3455809 22.1600877,20.448858 22.2631579,20.6554121 C22.3662281,20.8619662 22.4692982,20.9652433 22.6754386,21.0685204 C22.7785088,21.1717974 22.7785088,21.1717974 22.8815789,21.2750745 L22.8815789,21.2750745 C23.0877193,21.4816286 23.2938596,21.6881827 23.5,21.8947368 C23.6030702,21.9980139 23.7061404,22.101291 23.9122807,22.204568 C24.0153509,22.3078451 24.1184211,22.3078451 24.1184211,22.4111221 C24.2214912,22.5143992 24.3245614,22.6176763 24.4276316,22.6176763 C25.6644737,23.3406157 27.004386,23.7537239 28.5504386,23.7537239 C29.9934211,23.7537239 31.127193,23.4438928 32.0548246,22.8242304 C33.2916667,22.101291 33.9100877,21.1717974 34.8377193,19.8291956 L32.9824561,18.8997021 C32.3640351,20.5521351 31.127193,21.5849057 29.8903509,21.8947368 L29.8903509,21.8947368 Z" id="Shape"></path>
                                <path d="M143.370614,7.3326713 C138.835526,7.3326713 135.125,11.0506455 135.125,15.5948361 C135.125,20.1390268 138.835526,23.857001 143.370614,23.857001 C147.905702,23.857001 151.616228,20.1390268 151.616228,15.5948361 C151.616228,11.0506455 147.905702,7.3326713 143.370614,7.3326713 L143.370614,7.3326713 Z M143.370614,21.8947368 C141.309211,21.8947368 139.557018,19.1062562 139.557018,15.5948361 C139.557018,12.0834161 141.20614,9.29493545 143.370614,9.29493545 C145.432018,9.29493545 147.184211,12.0834161 147.184211,15.5948361 C147.184211,19.1062562 145.535088,21.8947368 143.370614,21.8947368 L143.370614,21.8947368 Z" id="Shape"></path>
                                <path d="M159.964912,7.64250248 L159.964912,4.23435948 L159.964912,3.30486594 C159.964912,2.8917577 160.377193,2.58192651 160.789474,2.47864945 L161.820175,2.47864945 L163.469298,2.47864945 L163.469298,0.206554121 C157.078947,-0.413108242 155.945175,0.309831182 155.945175,4.33763654 L155.945175,23.4438928 L159.861842,23.4438928 L159.861842,9.91459782 L163.366228,9.91459782 L163.366228,7.64250248 L159.964912,7.64250248 L159.964912,7.64250248 Z" id="Shape"></path>
                                <path d="M14.9451754,20.5521351 C15.7697368,19.3128103 16.1820175,18.0734856 16.1820175,16.9374379 C16.1820175,15.285005 15.5635965,13.7358491 14.5328947,12.7030785 C13.6052632,11.7735849 12.2653509,10.9473684 10.3070175,10.1211519 C8.65789474,9.39821251 7.83333333,8.98510427 7.11184211,8.57199603 C5.97807018,7.95233366 5.25657895,6.816286 5.25657895,5.57696127 C5.25657895,4.02780536 6.39035088,2.68520357 7.93640351,2.27209533 C8.24561404,2.16881827 8.65789474,2.16881827 8.96710526,2.16881827 C11.0285088,2.16881827 12.4714912,3.20158888 13.3991228,5.26713009 L13.502193,5.37040715 L15.1513158,4.23435948 L15.1513158,4.13108242 C14.7390351,3.30486594 14.2236842,2.58192651 13.502193,1.96226415 C12.7807018,1.34260179 11.9561404,0.929493545 11.0285088,0.516385303 C10.1008772,0.206554121 9.17324561,-3.01980663e-14 8.24561404,-3.01980663e-14 C6.90570175,-3.01980663e-14 5.66885965,0.309831182 4.53508772,0.929493545 C3.29824561,1.54915591 2.47368421,2.37537239 1.85526316,3.30486594 C1.23684211,4.33763654 0.824561404,5.47368421 0.824561404,6.60973188 C0.824561404,8.36544191 1.33991228,9.81132075 2.26754386,10.7408143 C3.09210526,11.5670308 4.32894737,12.2899702 6.2872807,13.1161867 C8.03947368,13.8391261 8.76096491,14.2522344 9.68859649,14.7686197 C9.79166667,14.8718967 9.99780702,14.9751738 10.1008772,15.0784508 C11.0285088,15.8013903 11.4407895,16.7308838 11.4407895,17.8669315 C11.4407895,19.9324727 9.68859649,21.6881827 7.52412281,21.6881827 L7.52412281,21.6881827 L7.52412281,21.6881827 C6.49342105,21.6881827 5.66885965,21.4816286 4.94736842,20.9652433 C4.22587719,20.5521351 3.60745614,19.8291956 2.98903509,18.8997021 L2.88596491,18.796425 L1.13377193,20.0357498 L1.23684211,20.1390268 C2.67982456,22.5143992 5.15350877,23.7537239 8.45175439,23.7537239 C9.68859649,23.7537239 10.9254386,23.4438928 12.0592105,22.8242304 C13.3991228,22.4111221 14.2236842,21.4816286 14.9451754,20.5521351 L14.9451754,20.5521351 Z" id="Shape"></path>
                                <path d="M130.383772,20.5521351 C131.208333,19.3128103 131.620614,18.0734856 131.620614,16.9374379 C131.620614,15.285005 131.002193,13.7358491 129.971491,12.7030785 C129.14693,11.7735849 127.703947,10.9473684 125.745614,10.1211519 C124.096491,9.39821251 123.27193,8.98510427 122.550439,8.57199603 C121.416667,7.95233366 120.695175,6.816286 120.695175,5.57696127 C120.695175,4.02780536 121.828947,2.68520357 123.375,2.27209533 C123.684211,2.16881827 123.993421,2.16881827 124.405702,2.16881827 C126.467105,2.16881827 127.910088,3.20158888 128.837719,5.26713009 L128.940789,5.37040715 L130.589912,4.23435948 L130.589912,4.13108242 C130.177632,3.30486594 129.662281,2.58192651 128.940789,1.96226415 C128.219298,1.34260179 127.394737,0.929493545 126.467105,0.516385303 C125.539474,0.206554121 124.611842,-3.01980663e-14 123.684211,-3.01980663e-14 C122.344298,-3.01980663e-14 121.107456,0.309831182 119.973684,0.929493545 C118.736842,1.54915591 117.912281,2.37537239 117.29386,3.30486594 C116.675439,4.33763654 116.263158,5.47368421 116.263158,6.60973188 C116.263158,8.36544191 116.778509,9.81132075 117.70614,10.7408143 C118.530702,11.5670308 119.767544,12.2899702 121.725877,13.1161867 C123.47807,13.8391261 124.199561,14.2522344 125.127193,14.7686197 C125.230263,14.8718967 125.436404,14.9751738 125.539474,15.0784508 C126.467105,15.8013903 126.879386,16.7308838 126.879386,17.8669315 C126.879386,19.9324727 125.127193,21.6881827 122.962719,21.6881827 L122.962719,21.6881827 L122.962719,21.6881827 C121.932018,21.6881827 121.107456,21.4816286 120.385965,20.9652433 C119.664474,20.5521351 119.046053,19.8291956 118.427632,18.8997021 L118.324561,18.796425 L116.572368,20.0357498 L116.675439,20.1390268 C118.118421,22.5143992 120.592105,23.7537239 123.890351,23.7537239 C125.127193,23.7537239 126.364035,23.4438928 127.497807,22.8242304 C128.940789,22.4111221 129.765351,21.4816286 130.383772,20.5521351 L130.383772,20.5521351 Z" id="Shape"></path>
                            </g>
                            <g transform="translate(57.719298, 33.048659)" id="Shape">
                                <path d="M173.570175,3.71797418 L173.570175,3.30486594 L176.662281,3.30486594 L176.662281,3.71797418 L175.631579,3.71797418 L175.631579,8.36544191 L174.600877,8.36544191 L174.600877,3.71797418 L173.570175,3.71797418 L173.570175,3.71797418 Z"></path>
                                <path d="M0.824561404,8.36544191 L0.824561404,0.722939424 L3.91666667,0.722939424 C4.32894737,0.722939424 4.63815789,0.826216485 5.0504386,1.03277061 C5.35964912,1.23932473 5.66885965,1.44587885 5.875,1.75571003 C6.08114035,2.06554121 6.18421053,2.47864945 6.18421053,2.99503476 C6.18421053,3.51142006 6.08114035,4.02780536 5.875,4.33763654 C5.66885965,4.64746773 5.35964912,4.85402185 4.94736842,5.06057597 C4.53508772,5.16385303 4.01973684,5.26713009 3.29824561,5.26713009 L2.26754386,5.26713009 L2.26754386,8.46871897 L0.824561404,8.46871897 L0.824561404,8.36544191 Z M2.26754386,1.13604767 L2.26754386,4.75074479 L2.98903509,4.75074479 C3.60745614,4.75074479 4.12280702,4.64746773 4.32894737,4.23435948 C4.63815789,3.9245283 4.74122807,3.408143 4.74122807,2.78848064 C4.74122807,2.47864945 4.63815789,2.16881827 4.53508772,1.96226415 C4.43201754,1.75571003 4.22587719,1.54915591 3.91666667,1.34260179 C3.60745614,1.13604767 3.29824561,1.13604767 2.78289474,1.13604767 L2.26754386,1.13604767 L2.26754386,1.13604767 Z"></path>
                                <path d="M8.86403509,8.36544191 L7.83333333,8.36544191 L7.83333333,3.20158888 L9.99780702,3.20158888 C10.3070175,3.20158888 10.5131579,3.30486594 10.7192982,3.408143 C10.9254386,3.51142006 11.1315789,3.71797418 11.2346491,3.9245283 C11.3377193,4.13108242 11.4407895,4.33763654 11.4407895,4.64746773 C11.4407895,5.06057597 11.3377193,5.26713009 11.2346491,5.47368421 C11.0285088,5.68023833 10.8223684,5.88679245 10.4100877,5.88679245 L11.75,8.36544191 L10.5131579,8.36544191 L9.27631579,5.78351539 L9.37938596,5.78351539 C10.1008772,5.78351539 10.4100877,5.37040715 10.4100877,4.64746773 C10.4100877,4.33763654 10.3070175,4.13108242 10.1008772,3.9245283 C9.89473684,3.71797418 9.68859649,3.61469712 9.27631579,3.61469712 L8.76096491,3.61469712 L8.76096491,8.36544191 L8.86403509,8.36544191 Z"></path>
                                <path d="M27.004386,3.30486594 L27.004386,3.71797418 L25.0460526,3.71797418 C24.8399123,3.71797418 24.7368421,3.82125124 24.7368421,3.9245283 L24.7368421,5.57696127 L26.5921053,5.57696127 L26.5921053,6.09334657 L24.7368421,6.09334657 L24.7368421,7.74577954 C24.7368421,7.95233366 24.8399123,8.15888779 25.1491228,8.15888779 L27.1074561,8.15888779 L27.1074561,8.57199603 L24.4276316,8.57199603 C24.1184211,8.57199603 23.9122807,8.46871897 23.8092105,8.36544191 C23.7061404,8.26216485 23.6030702,7.95233366 23.6030702,7.64250248 L23.6030702,4.4409136 C23.6030702,4.13108242 23.7061404,3.82125124 23.8092105,3.71797418 C23.9122807,3.51142006 24.2214912,3.408143 24.5307018,3.408143 L27.004386,3.408143 L27.004386,3.30486594 Z"></path>
                                <path d="M38.3421053,0.619662363 C38.5482456,0.619662363 38.754386,0.722939424 38.8574561,0.826216485 C38.9605263,0.929493545 39.0635965,1.13604767 39.0635965,1.34260179 C39.0635965,1.54915591 38.9605263,1.75571003 38.8574561,1.85898709 C38.754386,1.96226415 38.5482456,2.06554121 38.3421053,2.06554121 C38.1359649,2.06554121 37.9298246,1.96226415 37.8267544,1.85898709 C37.7236842,1.75571003 37.620614,1.54915591 37.620614,1.34260179 C37.620614,1.13604767 37.7236842,1.03277061 37.8267544,0.826216485 C38.0328947,0.722939424 38.1359649,0.619662363 38.3421053,0.619662363 L38.3421053,0.619662363 Z M38.8574561,8.36544191 L37.8267544,8.36544191 L37.8267544,3.20158888 L38.8574561,3.20158888 L38.8574561,8.36544191 L38.8574561,8.36544191 Z"></path>
                                <path d="M48.0307018,8.36544191 L47.5153509,8.36544191 L47.5153509,4.02780536 C47.5153509,3.82125124 47.6184211,3.61469712 47.7214912,3.408143 C47.8245614,3.30486594 48.0307018,3.20158888 48.3399123,3.20158888 C48.5460526,3.20158888 48.6491228,3.20158888 48.752193,3.30486594 C48.8552632,3.408143 48.9583333,3.51142006 49.0614035,3.61469712 C49.370614,4.02780536 49.6798246,4.54419067 49.9890351,5.06057597 C50.2982456,5.57696127 50.6074561,5.99006951 50.7105263,6.09334657 C50.8135965,6.2999007 50.9166667,6.40317776 50.9166667,6.40317776 C51.0197368,6.40317776 51.0197368,6.40317776 51.0197368,6.2999007 L51.0197368,3.20158888 L51.5350877,3.20158888 L51.5350877,7.95233366 L51.5350877,8.36544191 C51.5350877,8.46871897 51.4320175,8.46871897 51.2258772,8.46871897 C51.122807,8.46871897 51.0197368,8.46871897 51.0197368,8.36544191 C50.9166667,8.36544191 50.9166667,8.26216485 50.8135965,8.15888779 C50.7105263,8.05561072 50.7105263,7.95233366 50.6074561,7.8490566 L50.1951754,7.22939424 C49.5767544,6.19662363 49.0614035,5.47368421 48.752193,5.06057597 C48.4429825,4.64746773 48.2368421,4.33763654 48.2368421,4.23435948 C48.1337719,4.13108242 48.1337719,4.02780536 48.0307018,4.02780536 C47.9276316,4.02780536 47.9276316,4.13108242 47.9276316,4.23435948 L47.9276316,8.36544191 L48.0307018,8.36544191 Z"></path>
                                <path d="M53.6995614,8.36544191 L53.1842105,8.36544191 L54.3179825,4.02780536 C54.4210526,3.71797418 54.5241228,3.51142006 54.627193,3.408143 C54.7302632,3.30486594 54.9364035,3.20158888 55.245614,3.20158888 C55.5548246,3.20158888 55.7609649,3.30486594 55.8640351,3.408143 C55.9671053,3.61469712 56.0701754,3.82125124 56.1732456,4.23435948 L57.4100877,8.36544191 L56.2763158,8.36544191 L55.8640351,6.816286 L54.0087719,6.816286 L53.6995614,8.36544191 L53.6995614,8.36544191 Z M54.3179825,6.2999007 L55.9671053,6.2999007 L55.3486842,4.33763654 C55.3486842,4.23435948 55.3486842,4.13108242 55.245614,4.02780536 C55.245614,3.9245283 55.245614,3.9245283 55.1425439,3.82125124 L55.0394737,3.71797418 C54.9364035,3.71797418 54.9364035,3.71797418 54.9364035,3.82125124 C54.9364035,3.9245283 54.8333333,4.02780536 54.8333333,4.23435948 L54.3179825,6.2999007 L54.3179825,6.2999007 Z"></path>
                                <path d="M59.2653509,0.619662363 L60.2960526,0.619662363 L60.2960526,7.8490566 L60.2960526,7.95233366 L60.3991228,7.95233366 L61.120614,7.95233366 L61.120614,8.36544191 L59.8837719,8.36544191 C59.5745614,8.36544191 59.4714912,8.26216485 59.3684211,8.15888779 C59.2653509,8.05561072 59.2653509,7.8490566 59.2653509,7.64250248 L59.2653509,0.619662363 L59.2653509,0.619662363 Z"></path>
                                <path d="M83.1776316,3.71797418 L83.1776316,3.30486594 L86.2697368,3.30486594 L86.2697368,3.71797418 L85.2390351,3.71797418 L85.2390351,8.36544191 L84.2083333,8.36544191 L84.2083333,3.71797418 L83.1776316,3.71797418 L83.1776316,3.71797418 Z"></path>
                                <path d="M87.0942982,3.30486594 L88.2280702,3.30486594 L89.2587719,6.91956306 C89.3618421,7.22939424 89.3618421,7.3326713 89.4649123,7.43594836 C89.4649123,7.53922542 89.5679825,7.64250248 89.5679825,7.64250248 C89.5679825,7.74577954 89.6710526,7.74577954 89.6710526,7.74577954 C89.6710526,7.74577954 89.7741228,7.74577954 89.7741228,7.64250248 C89.7741228,7.53922542 89.877193,7.53922542 89.877193,7.43594836 C89.877193,7.3326713 89.877193,7.22939424 89.9802632,7.22939424 L90.3925439,5.88679245 L89.5679825,3.30486594 L90.7017544,3.30486594 L91.8355263,7.12611718 C91.8355263,7.22939424 91.9385965,7.3326713 91.9385965,7.43594836 C91.9385965,7.53922542 92.0416667,7.64250248 92.0416667,7.64250248 L92.1447368,7.74577954 L92.247807,7.74577954 C92.247807,7.74577954 92.247807,7.64250248 92.3508772,7.64250248 L92.3508772,7.53922542 L92.3508772,7.43594836 L93.4846491,3.30486594 L94.1030702,3.30486594 L92.7631579,7.8490566 C92.6600877,8.15888779 92.5570175,8.26216485 92.4539474,8.36544191 C92.3508772,8.46871897 92.0416667,8.46871897 91.7324561,8.46871897 C91.3201754,8.46871897 91.0109649,8.26216485 90.9078947,7.8490566 L90.5986842,6.71300894 L90.2894737,7.64250248 C90.1864035,7.95233366 90.0833333,8.15888779 89.9802632,8.26216485 C89.877193,8.36544191 89.6710526,8.36544191 89.4649123,8.36544191 C89.2587719,8.36544191 89.0526316,8.26216485 88.8464912,8.15888779 C88.7434211,8.05561072 88.5372807,7.8490566 88.5372807,7.53922542 L87.0942982,3.30486594 L87.0942982,3.30486594 Z"></path>
                                <path d="M95.4429825,8.36544191 L94.9276316,8.36544191 L96.1644737,4.02780536 C96.2675439,3.71797418 96.370614,3.51142006 96.4736842,3.408143 C96.5767544,3.30486594 96.7828947,3.20158888 97.0921053,3.20158888 C97.4013158,3.20158888 97.6074561,3.30486594 97.7105263,3.408143 C97.8135965,3.61469712 97.9166667,3.82125124 98.0197368,4.23435948 L99.2565789,8.36544191 L98.122807,8.36544191 L97.7105263,6.816286 L95.8552632,6.816286 L95.4429825,8.36544191 L95.4429825,8.36544191 Z M95.9583333,6.2999007 L97.6074561,6.2999007 L96.9890351,4.33763654 C96.9890351,4.23435948 96.9890351,4.13108242 96.8859649,4.02780536 C96.8859649,3.9245283 96.8859649,3.9245283 96.7828947,3.82125124 L96.6798246,3.71797418 C96.5767544,3.71797418 96.5767544,3.71797418 96.5767544,3.82125124 C96.5767544,3.9245283 96.4736842,4.02780536 96.4736842,4.23435948 L95.9583333,6.2999007 L95.9583333,6.2999007 Z"></path>
                                <path d="M101.936404,8.36544191 L100.905702,8.36544191 L100.905702,3.20158888 L103.070175,3.20158888 C103.379386,3.20158888 103.585526,3.30486594 103.791667,3.408143 C103.997807,3.51142006 104.203947,3.71797418 104.307018,3.9245283 C104.410088,4.13108242 104.513158,4.33763654 104.513158,4.64746773 C104.513158,5.06057597 104.410088,5.26713009 104.307018,5.47368421 C104.100877,5.68023833 103.894737,5.78351539 103.482456,5.88679245 L104.822368,8.36544191 L103.585526,8.36544191 L102.348684,5.78351539 L102.451754,5.78351539 C103.173246,5.78351539 103.482456,5.37040715 103.482456,4.64746773 C103.482456,4.33763654 103.379386,4.13108242 103.173246,3.9245283 C102.967105,3.71797418 102.760965,3.61469712 102.348684,3.61469712 L101.833333,3.61469712 L101.833333,8.36544191 L101.936404,8.36544191 Z"></path>
                                <path d="M109.769737,3.30486594 L109.769737,3.71797418 L107.811404,3.71797418 C107.605263,3.71797418 107.605263,3.82125124 107.605263,3.9245283 L107.605263,5.57696127 L109.460526,5.57696127 L109.460526,6.09334657 L107.605263,6.09334657 L107.605263,7.74577954 C107.605263,7.95233366 107.708333,8.15888779 108.017544,8.15888779 L109.975877,8.15888779 L109.975877,8.57199603 L107.296053,8.57199603 C106.986842,8.57199603 106.883772,8.46871897 106.677632,8.36544191 C106.574561,8.26216485 106.471491,7.95233366 106.471491,7.64250248 L106.471491,4.4409136 C106.471491,4.13108242 106.574561,3.82125124 106.677632,3.71797418 C106.780702,3.51142006 106.986842,3.408143 107.399123,3.408143 L109.769737,3.408143 L109.769737,3.30486594 Z"></path>
                                <path d="M115.747807,8.36544191 L115.747807,0.722939424 L118.221491,0.722939424 C118.839912,0.722939424 119.458333,0.826216485 119.973684,1.03277061 C120.489035,1.23932473 120.901316,1.54915591 121.210526,1.96226415 C121.519737,2.37537239 121.828947,2.78848064 121.932018,3.20158888 C122.138158,3.71797418 122.138158,4.13108242 122.138158,4.75074479 C122.138158,5.57696127 121.932018,6.19662363 121.622807,6.816286 C121.313596,7.3326713 120.901316,7.74577954 120.282895,8.05561072 C119.767544,8.36544191 119.046053,8.46871897 118.324561,8.46871897 L115.747807,8.46871897 L115.747807,8.36544191 Z M117.190789,1.23932473 L117.190789,7.95233366 L118.118421,7.95233366 C118.839912,7.95233366 119.355263,7.8490566 119.767544,7.53922542 C120.179825,7.22939424 120.489035,6.816286 120.592105,6.40317776 C120.798246,5.88679245 120.798246,5.37040715 120.798246,4.85402185 C120.798246,4.23435948 120.695175,3.61469712 120.489035,3.09831182 C120.282895,2.58192651 119.973684,2.16881827 119.561404,1.85898709 C119.149123,1.54915591 118.633772,1.44587885 118.118421,1.44587885 L117.190789,1.44587885 L117.190789,1.23932473 Z"></path>
                                <path d="M127.394737,3.30486594 L127.394737,3.71797418 L125.436404,3.71797418 C125.230263,3.71797418 125.230263,3.82125124 125.230263,3.9245283 L125.230263,5.57696127 L127.085526,5.57696127 L127.085526,6.09334657 L125.230263,6.09334657 L125.230263,7.74577954 C125.230263,7.95233366 125.333333,8.15888779 125.642544,8.15888779 L127.600877,8.15888779 L127.600877,8.57199603 L124.921053,8.57199603 C124.611842,8.57199603 124.508772,8.46871897 124.302632,8.36544191 C124.199561,8.26216485 124.096491,7.95233366 124.096491,7.64250248 L124.096491,4.4409136 C124.096491,4.13108242 124.199561,3.82125124 124.302632,3.71797418 C124.405702,3.51142006 124.714912,3.408143 125.024123,3.408143 L127.394737,3.408143 L127.394737,3.30486594 Z"></path>
                                <path d="M132.960526,3.30486594 L131.723684,7.74577954 C131.620614,8.05561072 131.517544,8.26216485 131.414474,8.36544191 C131.311404,8.46871897 131.105263,8.57199603 130.796053,8.57199603 C130.486842,8.57199603 130.280702,8.46871897 130.177632,8.36544191 C130.074561,8.15888779 129.971491,7.95233366 129.868421,7.64250248 L128.631579,3.30486594 L129.765351,3.30486594 L130.899123,7.22939424 C130.899123,7.3326713 131.002193,7.43594836 131.002193,7.53922542 C131.002193,7.64250248 131.002193,7.64250248 131.105263,7.64250248 L131.208333,7.74577954 C131.208333,7.74577954 131.311404,7.74577954 131.311404,7.64250248 C131.311404,7.53922542 131.414474,7.43594836 131.414474,7.3326713 L132.548246,3.408143 L132.960526,3.408143 L132.960526,3.30486594 Z"></path>
                                <path d="M137.907895,3.30486594 L137.907895,3.71797418 L135.949561,3.71797418 C135.743421,3.71797418 135.640351,3.82125124 135.640351,3.9245283 L135.640351,5.57696127 L137.495614,5.57696127 L137.495614,6.09334657 L135.640351,6.09334657 L135.640351,7.74577954 C135.640351,7.95233366 135.743421,8.15888779 136.052632,8.15888779 L138.010965,8.15888779 L138.010965,8.57199603 L135.33114,8.57199603 C135.02193,8.57199603 134.91886,8.46871897 134.712719,8.36544191 C134.609649,8.26216485 134.506579,7.95233366 134.506579,7.64250248 L134.506579,4.4409136 C134.506579,4.13108242 134.609649,3.82125124 134.712719,3.71797418 C134.815789,3.51142006 135.125,3.408143 135.434211,3.408143 L137.907895,3.408143 L137.907895,3.30486594 Z"></path>
                                <path d="M139.763158,0.722939424 L140.79386,0.722939424 L140.79386,7.8490566 L140.79386,7.95233366 L140.89693,7.95233366 L141.618421,7.95233366 L141.618421,8.36544191 L140.381579,8.36544191 C140.072368,8.36544191 139.969298,8.26216485 139.866228,8.15888779 C139.763158,8.05561072 139.763158,7.8490566 139.763158,7.64250248 L139.763158,0.722939424 L139.763158,0.722939424 Z"></path>
                                <path d="M150.585526,10.9473684 L149.554825,10.9473684 L149.554825,3.30486594 L151.203947,3.30486594 C151.719298,3.30486594 152.234649,3.408143 152.64693,3.61469712 C153.059211,3.82125124 153.368421,4.13108242 153.677632,4.54419067 C153.883772,4.95729891 153.986842,5.37040715 153.986842,5.88679245 C153.986842,6.71300894 153.780702,7.3326713 153.368421,7.74577954 C152.95614,8.15888779 152.337719,8.36544191 151.616228,8.36544191 L150.585526,8.36544191 L150.585526,10.9473684 L150.585526,10.9473684 Z M150.585526,3.61469712 L150.585526,7.95233366 L151.307018,7.95233366 C151.616228,7.95233366 151.925439,7.8490566 152.131579,7.74577954 C152.337719,7.53922542 152.54386,7.3326713 152.64693,7.02284012 C152.75,6.71300894 152.85307,6.40317776 152.85307,5.99006951 C152.85307,5.57696127 152.85307,5.16385303 152.75,4.85402185 C152.64693,4.54419067 152.440789,4.23435948 152.234649,3.9245283 C151.925439,3.71797418 151.513158,3.51142006 150.997807,3.51142006 L150.585526,3.51142006 L150.585526,3.61469712 Z"></path>
                                <path d="M156.254386,8.36544191 L155.739035,8.36544191 L155.739035,4.13108242 C155.739035,3.82125124 155.842105,3.61469712 155.945175,3.408143 C156.048246,3.20158888 156.254386,3.20158888 156.563596,3.20158888 C156.872807,3.20158888 157.078947,3.30486594 157.182018,3.408143 C157.285088,3.51142006 157.388158,3.82125124 157.491228,4.13108242 L158.212719,6.40317776 L158.934211,3.71797418 C159.037281,3.51142006 159.037281,3.408143 159.243421,3.30486594 C159.346491,3.20158888 159.552632,3.20158888 159.758772,3.20158888 C160.067982,3.20158888 160.274123,3.30486594 160.480263,3.51142006 C160.686404,3.71797418 160.686404,3.9245283 160.686404,4.23435948 L160.686404,8.46871897 L159.655702,8.46871897 L159.655702,4.13108242 L159.655702,3.9245283 L159.552632,3.9245283 C159.552632,3.9245283 159.449561,4.02780536 159.449561,4.13108242 C159.449561,4.23435948 159.346491,4.54419067 159.243421,4.95729891 L158.41886,7.95233366 C158.315789,8.15888779 158.315789,8.26216485 158.315789,8.36544191 C158.315789,8.46871897 158.212719,8.46871897 158.109649,8.46871897 C158.006579,8.46871897 157.903509,8.46871897 157.903509,8.36544191 C157.903509,8.26216485 157.800439,8.15888779 157.800439,7.95233366 L156.769737,4.33763654 C156.769737,4.23435948 156.666667,4.13108242 156.666667,4.02780536 L156.563596,3.9245283 L156.563596,3.9245283 L156.563596,4.23435948 L156.563596,8.36544191 L156.254386,8.36544191 Z"></path>
                                <path d="M166.149123,3.30486594 L166.149123,3.71797418 L164.190789,3.71797418 C163.984649,3.71797418 163.984649,3.82125124 163.984649,3.9245283 L163.984649,5.57696127 L165.839912,5.57696127 L165.839912,6.09334657 L163.881579,6.09334657 L163.881579,7.74577954 C163.881579,7.95233366 163.984649,8.15888779 164.29386,8.15888779 L166.252193,8.15888779 L166.252193,8.57199603 L163.572368,8.57199603 C163.263158,8.57199603 163.160088,8.46871897 162.953947,8.36544191 C162.850877,8.26216485 162.747807,7.95233366 162.747807,7.64250248 L162.747807,4.4409136 C162.747807,4.13108242 162.850877,3.82125124 162.953947,3.71797418 C163.057018,3.51142006 163.366228,3.408143 163.675439,3.408143 L166.149123,3.408143 L166.149123,3.30486594 Z"></path>
                                <path d="M168.416667,8.36544191 L167.901316,8.36544191 L167.901316,4.02780536 C167.901316,3.82125124 168.004386,3.61469712 168.107456,3.408143 C168.210526,3.30486594 168.416667,3.20158888 168.725877,3.20158888 C168.932018,3.20158888 169.035088,3.20158888 169.138158,3.30486594 C169.241228,3.408143 169.344298,3.51142006 169.447368,3.61469712 C169.756579,4.02780536 170.065789,4.54419067 170.375,5.06057597 C170.684211,5.57696127 170.993421,5.99006951 171.096491,6.09334657 C171.199561,6.2999007 171.302632,6.40317776 171.302632,6.40317776 C171.405702,6.40317776 171.405702,6.40317776 171.405702,6.2999007 L171.405702,3.20158888 L171.921053,3.20158888 L171.921053,7.95233366 L171.921053,8.36544191 C171.921053,8.46871897 171.817982,8.46871897 171.611842,8.46871897 C171.508772,8.46871897 171.405702,8.46871897 171.405702,8.36544191 C171.302632,8.36544191 171.302632,8.26216485 171.199561,8.15888779 C171.199561,8.05561072 171.096491,7.95233366 170.993421,7.8490566 L170.58114,7.22939424 C169.962719,6.19662363 169.447368,5.47368421 169.138158,5.06057597 C168.828947,4.64746773 168.622807,4.33763654 168.622807,4.23435948 C168.519737,4.13108242 168.519737,4.02780536 168.416667,4.02780536 C168.313596,4.02780536 168.313596,4.13108242 168.313596,4.23435948 L168.313596,8.36544191 L168.416667,8.36544191 Z"></path>
                                <path d="M82.3530702,3.71797418 L82.3530702,3.30486594 L81.3223684,3.30486594 L81.1162281,3.30486594 L81.1162281,2.99503476 L81.1162281,1.75571003 L81.1162281,1.44587885 C81.1162281,1.23932473 81.3223684,1.03277061 81.5285088,1.03277061 L81.9407895,1.03277061 L82.3530702,1.03277061 L82.3530702,0.516385303 C81.9407895,0.516385303 81.6315789,0.413108242 81.3223684,0.413108242 C80.7039474,0.413108242 80.3947368,0.516385303 80.2916667,0.722939424 C80.0855263,0.929493545 80.0855263,1.23932473 80.0855263,1.75571003 L80.0855263,8.36544191 L81.1162281,8.36544191 L81.1162281,3.71797418 L81.3223684,3.71797418 L82.3530702,3.71797418 L82.3530702,3.71797418 Z"></path>
                                <path d="M22.2631579,3.61469712 L22.2631579,3.09831182 L21.2324561,3.09831182 L21.0263158,3.09831182 L21.0263158,2.8917577 L21.0263158,1.65243297 L21.0263158,1.34260179 C21.0263158,1.13604767 21.2324561,0.929493545 21.4385965,0.929493545 L21.8508772,0.929493545 L22.2631579,0.929493545 L22.2631579,0.413108242 C21.8508772,0.413108242 21.5416667,0.309831182 21.2324561,0.309831182 C20.6140351,0.309831182 20.3048246,0.413108242 20.2017544,0.619662363 C19.995614,0.826216485 19.995614,1.13604767 19.995614,1.65243297 L19.995614,8.26216485 L21.0263158,8.26216485 L21.0263158,3.61469712 L21.0263158,3.408143 L21.2324561,3.408143 L22.2631579,3.408143 L22.2631579,3.61469712 Z"></path>
                                <path d="M31.3333333,7.74577954 C31.5394737,7.43594836 31.6425439,7.22939424 31.6425439,6.91956306 C31.6425439,6.50645482 31.4364035,6.19662363 31.2302632,5.99006951 C31.0241228,5.78351539 30.7149123,5.47368421 30.3026316,5.26713009 L30.0964912,5.16385303 C29.8903509,5.06057597 29.7872807,4.95729891 29.6842105,4.85402185 C29.5811404,4.75074479 29.5811404,4.75074479 29.4780702,4.64746773 C29.375,4.54419067 29.2719298,4.33763654 29.2719298,4.23435948 L29.2719298,4.13108242 C29.2719298,4.02780536 29.2719298,3.9245283 29.375,3.9245283 L29.375,3.9245283 C29.4780702,3.82125124 29.4780702,3.82125124 29.5811404,3.71797418 L29.5811404,3.71797418 C29.7872807,3.61469712 29.9934211,3.61469712 30.4057018,3.61469712 L30.5087719,3.61469712 C30.7149123,3.61469712 30.8179825,3.61469712 31.2302632,3.71797418 L31.2302632,3.71797418 L31.2302632,3.30486594 C30.0964912,3.20158888 29.375,3.20158888 28.8596491,3.51142006 C28.4473684,3.71797418 28.2412281,4.13108242 28.2412281,4.64746773 C28.2412281,4.95729891 28.3442982,5.26713009 28.5504386,5.47368421 C28.7565789,5.68023833 28.9627193,5.88679245 29.375,6.09334657 C29.7872807,6.2999007 29.8903509,6.40317776 30.0964912,6.50645482 C30.4057018,6.71300894 30.5087719,7.02284012 30.5087719,7.12611718 C30.5087719,7.43594836 30.4057018,7.8490566 29.375,7.8490566 C29.0657895,7.8490566 28.7565789,7.8490566 28.3442982,7.74577954 L28.3442982,7.74577954 L28.3442982,8.05561072 C28.5504386,8.15888779 28.7565789,8.15888779 29.0657895,8.15888779 L29.7872807,8.15888779 C30.0964912,8.15888779 30.4057018,8.05561072 30.7149123,8.05561072 C31.0241228,8.15888779 31.2302632,7.95233366 31.3333333,7.74577954 L31.3333333,7.74577954 Z"></path>
                                <path d="M35.8684211,7.74577954 C36.0745614,7.43594836 36.1776316,7.22939424 36.1776316,6.91956306 C36.1776316,6.50645482 35.9714912,6.19662363 35.7653509,5.99006951 C35.5592105,5.78351539 35.25,5.47368421 34.8377193,5.26713009 L34.6315789,5.16385303 C34.4254386,5.06057597 34.3223684,4.95729891 34.2192982,4.85402185 C34.1162281,4.75074479 34.1162281,4.75074479 34.0131579,4.64746773 C33.9100877,4.54419067 33.8070175,4.33763654 33.8070175,4.23435948 L33.8070175,4.13108242 C33.8070175,4.02780536 33.8070175,3.9245283 33.9100877,3.9245283 L33.9100877,3.9245283 C34.0131579,3.82125124 34.0131579,3.82125124 34.1162281,3.71797418 L34.1162281,3.71797418 C34.3223684,3.61469712 34.5285088,3.61469712 34.9407895,3.61469712 L35.0438596,3.61469712 C35.25,3.61469712 35.3530702,3.61469712 35.7653509,3.71797418 L35.7653509,3.71797418 L35.7653509,3.30486594 C34.6315789,3.20158888 33.9100877,3.20158888 33.3947368,3.51142006 C32.9824561,3.71797418 32.7763158,4.13108242 32.7763158,4.64746773 C32.7763158,4.95729891 32.879386,5.26713009 33.0855263,5.47368421 C33.2916667,5.68023833 33.497807,5.88679245 33.9100877,6.09334657 C34.3223684,6.2999007 34.4254386,6.40317776 34.6315789,6.50645482 C34.9407895,6.71300894 35.0438596,7.02284012 35.0438596,7.12611718 C35.0438596,7.43594836 34.9407895,7.8490566 33.9100877,7.8490566 C33.6008772,7.8490566 33.2916667,7.8490566 32.879386,7.74577954 L32.879386,7.74577954 L32.879386,8.05561072 C33.0855263,8.15888779 33.2916667,8.15888779 33.6008772,8.15888779 L34.3223684,8.15888779 C34.6315789,8.15888779 34.9407895,8.05561072 35.25,8.05561072 C35.4561404,8.15888779 35.7653509,7.95233366 35.8684211,7.74577954 L35.8684211,7.74577954 Z"></path>
                                <path d="M75.6535088,3.09831182 C74.2105263,3.09831182 72.9736842,4.33763654 72.9736842,5.78351539 C72.9736842,7.3326713 74.1074561,8.46871897 75.6535088,8.46871897 C77.0964912,8.46871897 78.3333333,7.22939424 78.3333333,5.78351539 C78.2302632,4.33763654 77.0964912,3.09831182 75.6535088,3.09831182 L75.6535088,3.09831182 Z M75.6535088,8.15888779 C74.8289474,8.15888779 74.2105263,7.12611718 74.2105263,5.88679245 C74.2105263,4.64746773 74.8289474,3.61469712 75.6535088,3.61469712 C76.4780702,3.61469712 77.0964912,4.64746773 77.0964912,5.88679245 C76.9934211,7.12611718 76.375,8.15888779 75.6535088,8.15888779 L75.6535088,8.15888779 Z"></path>
                                <path d="M71.1184211,7.43594836 C71.4276316,7.02284012 71.5307018,6.60973188 71.5307018,6.19662363 C71.5307018,5.68023833 71.3245614,5.16385303 71.0153509,4.75074479 C70.7061404,4.4409136 70.2938596,4.13108242 69.5723684,3.82125124 C68.9539474,3.51142006 68.747807,3.408143 68.4385965,3.30486594 C68.0263158,3.09831182 67.8201754,2.68520357 67.8201754,2.27209533 C67.8201754,1.75571003 68.2324561,1.23932473 68.747807,1.13604767 L69.1600877,1.13604767 C69.8815789,1.13604767 70.3969298,1.44587885 70.7061404,2.27209533 L70.7061404,2.27209533 L71.2214912,1.96226415 C71.1184211,1.65243297 70.9122807,1.44587885 70.7061404,1.23932473 C70.5,1.03277061 70.1907895,0.826216485 69.8815789,0.722939424 C69.5723684,0.619662363 69.2631579,0.516385303 68.9539474,0.516385303 C68.5416667,0.516385303 68.0263158,0.619662363 67.7171053,0.826216485 C67.3048246,1.03277061 66.995614,1.34260179 66.7894737,1.65243297 C66.5833333,1.96226415 66.4802632,2.37537239 66.4802632,2.78848064 C66.4802632,3.408143 66.6864035,3.82125124 66.995614,4.13108242 C67.3048246,4.4409136 67.7171053,4.64746773 68.3355263,4.95729891 C68.9539474,5.16385303 69.1600877,5.37040715 69.5723684,5.57696127 C69.6754386,5.57696127 69.6754386,5.68023833 69.7785088,5.68023833 C70.0877193,5.99006951 70.2938596,6.2999007 70.2938596,6.71300894 C70.2938596,7.43594836 69.6754386,8.05561072 68.8508772,8.05561072 L68.8508772,8.05561072 L68.8508772,8.05561072 C68.4385965,8.05561072 68.2324561,7.95233366 67.9232456,7.8490566 C67.7171053,7.64250248 67.4078947,7.43594836 67.2017544,7.12611718 L67.2017544,7.12611718 L66.6864035,7.53922542 C67.2017544,8.36544191 68.0263158,8.77855015 69.1600877,8.77855015 C69.5723684,8.77855015 69.9846491,8.67527309 70.3969298,8.46871897 C70.5,8.15888779 70.8092105,7.8490566 71.1184211,7.43594836 L71.1184211,7.43594836 Z"></path>
                                <path d="M43.2894737,3.09831182 C41.8464912,3.09831182 40.6096491,4.33763654 40.6096491,5.78351539 C40.6096491,7.3326713 41.7434211,8.46871897 43.2894737,8.46871897 C44.7324561,8.46871897 45.9692982,7.22939424 45.9692982,5.78351539 C45.8662281,4.23435948 44.7324561,3.09831182 43.2894737,3.09831182 L43.2894737,3.09831182 Z M43.2894737,8.05561072 C42.4649123,8.05561072 41.8464912,7.02284012 41.8464912,5.78351539 C41.8464912,4.54419067 42.4649123,3.51142006 43.2894737,3.51142006 C44.1140351,3.51142006 44.7324561,4.54419067 44.7324561,5.78351539 C44.7324561,7.02284012 44.0109649,8.05561072 43.2894737,8.05561072 L43.2894737,8.05561072 Z"></path>
                                <path d="M15.4605263,3.09831182 C14.0175439,3.09831182 12.7807018,4.33763654 12.7807018,5.78351539 C12.7807018,7.3326713 13.9144737,8.46871897 15.4605263,8.46871897 C16.9035088,8.46871897 18.1403509,7.22939424 18.1403509,5.78351539 C18.1403509,4.23435948 17.0065789,3.09831182 15.4605263,3.09831182 L15.4605263,3.09831182 Z M15.4605263,8.05561072 C14.6359649,8.05561072 14.0175439,7.02284012 14.0175439,5.78351539 C14.0175439,4.54419067 14.6359649,3.51142006 15.4605263,3.51142006 C16.2850877,3.51142006 16.9035088,4.54419067 16.9035088,5.78351539 C16.9035088,7.02284012 16.2850877,8.05561072 15.4605263,8.05561072 L15.4605263,8.05561072 Z"></path>
                                <path d="M145.225877,3.09831182 C143.782895,3.09831182 142.546053,4.33763654 142.546053,5.78351539 C142.546053,7.3326713 143.679825,8.46871897 145.225877,8.46871897 C146.66886,8.46871897 147.905702,7.22939424 147.905702,5.78351539 C147.802632,4.23435948 146.66886,3.09831182 145.225877,3.09831182 L145.225877,3.09831182 Z M145.225877,8.05561072 C144.401316,8.05561072 143.782895,7.02284012 143.782895,5.78351539 C143.782895,4.54419067 144.401316,3.51142006 145.225877,3.51142006 C146.050439,3.51142006 146.66886,4.54419067 146.66886,5.78351539 C146.565789,7.02284012 145.947368,8.05561072 145.225877,8.05561072 L145.225877,8.05561072 Z"></path>
                            </g>
                            <g id="Shape">
                                <path d="M22.3662281,25.4061569 C16.1820175,22.6176763 10.2039474,19.3128103 10.2039474,11.876862 C10.2039474,8.46871897 11.2346491,3.71797418 16.1820175,0.413108242 L0,0.413108242 L0,47.3008937 L12.9868421,47.3008937 C25.6644737,47.3008937 32.5701754,43.3763654 32.5701754,35.733863 C32.5701754,31.6027805 29.5811404,28.6077458 22.3662281,25.4061569 Z"></path>
                                <path d="M35.7653509,31.6027805 C36.1776316,32.5322741 36.3837719,33.5650447 36.4868421,34.7010924 L46.7938596,34.7010924 L46.7938596,31.6027805 L35.7653509,31.6027805 L35.7653509,31.6027805 Z"></path>
                                <path d="M30.6118421,25.4061569 C31.8486842,26.3356504 33.0855263,27.3684211 34.0131579,28.5044687 L46.7938596,28.5044687 L46.7938596,25.4061569 L30.6118421,25.4061569 L30.6118421,25.4061569 Z"></path>
                                <path d="M46.7938596,37.9026812 L36.3837719,37.9026812 C36.2807018,38.8321748 35.9714912,39.9682224 35.5592105,41.000993 L46.7938596,41.000993 L46.7938596,37.9026812 L46.7938596,37.9026812 Z"></path>
                                <path d="M46.7938596,3.51142006 L46.7938596,0.413108242 L33.3947368,0.413108242 C28.2412281,0.413108242 22.4692982,1.03277061 18.6557018,3.51142006 L46.7938596,3.51142006 L46.7938596,3.51142006 Z"></path>
                                <path d="M33.7039474,44.0993049 C32.879386,45.2353525 31.745614,46.2681231 30.1995614,47.1976167 L46.7938596,47.1976167 L46.7938596,44.0993049 L33.7039474,44.0993049 L33.7039474,44.0993049 Z"></path>
                                <path d="M15.5635965,6.60973188 C15.0482456,7.53922542 14.6359649,8.57199603 14.4298246,9.70804369 L46.7938596,9.70804369 L46.7938596,6.60973188 L15.5635965,6.60973188 L15.5635965,6.60973188 Z"></path>
                                <path d="M18.9649123,19.1062562 C20.3048246,19.9324727 21.9539474,20.8619662 24.0153509,21.7914598 C24.3245614,21.9980139 24.7368421,22.101291 25.0460526,22.3078451 L46.6907895,22.3078451 L46.6907895,19.2095333 L18.9649123,19.2095333 L18.9649123,19.1062562 Z"></path>
                                <path d="M14.3267544,12.9096326 C14.4298246,14.0456802 14.8421053,15.0784508 15.4605263,16.0079444 L46.7938596,16.0079444 L46.7938596,12.9096326 L14.3267544,12.9096326 L14.3267544,12.9096326 Z"></path>
                            </g>
                        </g>
                    </g>
                </g>
            </g>
        </g>
    </g>
</svg>